<mxfile host="app.diagrams.net" modified="2022-12-02T01:32:56.830Z" agent="5.0 (Macintosh; Intel Mac OS X 10_15_7) AppleWebKit/537.36 (KHTML, like Gecko) Chrome/106.0.0.0 Safari/537.36" etag="8e9XfS22ohp17l-j_709" version="20.6.0" type="github">
  <diagram name="Page-1" id="74e2e168-ea6b-b213-b513-2b3c1d86103e">
    <mxGraphModel dx="946" dy="614" grid="1" gridSize="10" guides="1" tooltips="1" connect="1" arrows="1" fold="1" page="1" pageScale="1" pageWidth="1100" pageHeight="850" background="none" math="0" shadow="0">
      <root>
        <mxCell id="0" />
        <mxCell id="1" parent="0" />
        <mxCell id="hfABhJb9LTYDY_tYQw2S-5" style="edgeStyle=orthogonalEdgeStyle;rounded=0;orthogonalLoop=1;jettySize=auto;html=1;exitX=1;exitY=0.5;exitDx=0;exitDy=0;entryX=0;entryY=0.5;entryDx=0;entryDy=0;" edge="1" parent="1" source="hfABhJb9LTYDY_tYQw2S-1" target="hfABhJb9LTYDY_tYQw2S-3">
          <mxGeometry relative="1" as="geometry" />
        </mxCell>
        <mxCell id="hfABhJb9LTYDY_tYQw2S-1" value="执行main方法" style="rounded=0;whiteSpace=wrap;html=1;" vertex="1" parent="1">
          <mxGeometry x="40" y="160" width="80" height="40" as="geometry" />
        </mxCell>
        <mxCell id="hfABhJb9LTYDY_tYQw2S-7" style="edgeStyle=orthogonalEdgeStyle;rounded=0;orthogonalLoop=1;jettySize=auto;html=1;exitX=1;exitY=0.5;exitDx=0;exitDy=0;entryX=0;entryY=0.5;entryDx=0;entryDy=0;" edge="1" parent="1" source="hfABhJb9LTYDY_tYQw2S-3" target="hfABhJb9LTYDY_tYQw2S-6">
          <mxGeometry relative="1" as="geometry" />
        </mxCell>
        <mxCell id="hfABhJb9LTYDY_tYQw2S-3" value="正常流程" style="rounded=0;whiteSpace=wrap;html=1;" vertex="1" parent="1">
          <mxGeometry x="160" y="160" width="80" height="40" as="geometry" />
        </mxCell>
        <mxCell id="hfABhJb9LTYDY_tYQw2S-9" style="edgeStyle=orthogonalEdgeStyle;rounded=0;orthogonalLoop=1;jettySize=auto;html=1;exitX=1;exitY=0.5;exitDx=0;exitDy=0;entryX=0;entryY=0.5;entryDx=0;entryDy=0;" edge="1" parent="1" source="hfABhJb9LTYDY_tYQw2S-6" target="hfABhJb9LTYDY_tYQw2S-8">
          <mxGeometry relative="1" as="geometry" />
        </mxCell>
        <mxCell id="hfABhJb9LTYDY_tYQw2S-6" value="找到 agent.jar" style="rounded=0;whiteSpace=wrap;html=1;" vertex="1" parent="1">
          <mxGeometry x="280" y="160" width="80" height="40" as="geometry" />
        </mxCell>
        <mxCell id="hfABhJb9LTYDY_tYQw2S-11" style="edgeStyle=orthogonalEdgeStyle;rounded=0;orthogonalLoop=1;jettySize=auto;html=1;exitX=1;exitY=0.5;exitDx=0;exitDy=0;entryX=0;entryY=0.5;entryDx=0;entryDy=0;" edge="1" parent="1" source="hfABhJb9LTYDY_tYQw2S-8" target="hfABhJb9LTYDY_tYQw2S-10">
          <mxGeometry relative="1" as="geometry" />
        </mxCell>
        <mxCell id="hfABhJb9LTYDY_tYQw2S-8" value="执行 agentmain方法" style="rounded=0;whiteSpace=wrap;html=1;" vertex="1" parent="1">
          <mxGeometry x="400" y="160" width="80" height="40" as="geometry" />
        </mxCell>
        <mxCell id="hfABhJb9LTYDY_tYQw2S-10" value="正常流程" style="rounded=0;whiteSpace=wrap;html=1;" vertex="1" parent="1">
          <mxGeometry x="520" y="160" width="80" height="40" as="geometry" />
        </mxCell>
        <mxCell id="hfABhJb9LTYDY_tYQw2S-12" value="attach &amp;amp; loadAgent" style="rounded=0;whiteSpace=wrap;html=1;" vertex="1" parent="1">
          <mxGeometry x="220" y="240" width="80" height="40" as="geometry" />
        </mxCell>
        <mxCell id="hfABhJb9LTYDY_tYQw2S-17" value="" style="endArrow=classic;html=1;rounded=0;exitX=0.5;exitY=0;exitDx=0;exitDy=0;" edge="1" parent="1" source="hfABhJb9LTYDY_tYQw2S-12">
          <mxGeometry width="50" height="50" relative="1" as="geometry">
            <mxPoint x="259.5" y="230" as="sourcePoint" />
            <mxPoint x="259.5" y="180" as="targetPoint" />
          </mxGeometry>
        </mxCell>
      </root>
    </mxGraphModel>
  </diagram>
</mxfile>
